<svg width="142" height="17" viewBox="0 0 142 17" fill="none" xmlns="http://www.w3.org/2000/svg">
<g clip-path="url(#clip0_1_2628)">
<path d="M141.149 5.09521C141.149 5.09521 140.983 3.92427 140.473 3.41012C139.826 2.73343 139.103 2.73012 138.771 2.69031C136.396 2.51782 132.83 2.51782 132.83 2.51782H132.823C132.823 2.51782 129.257 2.51782 126.882 2.69031C126.551 2.73012 125.828 2.73343 125.181 3.41012C124.67 3.92427 124.507 5.09521 124.507 5.09521C124.507 5.09521 124.335 6.47181 124.335 7.84509V9.13212C124.335 10.5054 124.504 11.882 124.504 11.882C124.504 11.882 124.67 13.0529 125.177 13.5671C125.824 14.2438 126.673 14.2206 127.052 14.2935C128.412 14.4229 132.827 14.4627 132.827 14.4627C132.827 14.4627 136.396 14.4561 138.771 14.2869C139.103 14.2471 139.826 14.2438 140.473 13.5671C140.983 13.0529 141.149 11.882 141.149 11.882C141.149 11.882 141.318 10.5087 141.318 9.13212V7.84509C141.318 6.47181 141.149 5.09521 141.149 5.09521ZM131.072 10.6945V5.92117L135.659 8.31612L131.072 10.6945Z" fill="black"/>
</g>
<g clip-path="url(#clip1_1_2628)">
<path d="M109.181 0H94.7089C94.0157 0 93.4551 0.547322 93.4551 1.22401V15.7562C93.4551 16.4329 94.0157 16.9836 94.7089 16.9836H109.181C109.875 16.9836 110.439 16.4329 110.439 15.7596V1.22401C110.439 0.547322 109.875 0 109.181 0ZM98.4938 14.4725H95.9728V6.36552H98.4938V14.4725ZM97.2333 5.26092C96.4239 5.26092 95.7704 4.60745 95.7704 3.8014C95.7704 2.99534 96.4239 2.34187 97.2333 2.34187C98.0393 2.34187 98.6928 2.99534 98.6928 3.8014C98.6928 4.60414 98.0393 5.26092 97.2333 5.26092ZM107.928 14.4725H105.41V10.5318C105.41 9.59306 105.393 8.38232 104.1 8.38232C102.789 8.38232 102.59 9.4073 102.59 10.4655V14.4725H100.076V6.36552H102.491V7.47343H102.524C102.859 6.83655 103.682 6.16318 104.906 6.16318C107.457 6.16318 107.928 7.84163 107.928 10.0243V14.4725Z" fill="black"/>
</g>
<g clip-path="url(#clip2_1_2628)">
<path d="M71.0681 1.52931C73.337 1.52931 73.6057 1.53926 74.498 1.57906C75.3273 1.61555 75.7751 1.75487 76.0736 1.87097C76.4684 2.02355 76.7536 2.20931 77.0489 2.50453C77.3474 2.80307 77.5299 3.08503 77.6824 3.47976C77.7985 3.7783 77.9379 4.22943 77.9743 5.05539C78.0141 5.951 78.0241 6.21969 78.0241 8.48527C78.0241 10.7542 78.0141 11.0229 77.9743 11.9152C77.9379 12.7444 77.7985 13.1922 77.6824 13.4908C77.5299 13.8855 77.3441 14.1708 77.0489 14.466C76.7503 14.7645 76.4684 14.947 76.0736 15.0996C75.7751 15.2157 75.324 15.355 74.498 15.3915C73.6024 15.4313 73.3337 15.4412 71.0681 15.4412C68.7992 15.4412 68.5306 15.4313 67.6383 15.3915C66.809 15.355 66.3612 15.2157 66.0626 15.0996C65.6679 14.947 65.3826 14.7612 65.0874 14.466C64.7889 14.1675 64.6064 13.8855 64.4538 13.4908C64.3377 13.1922 64.1984 12.7411 64.1619 11.9152C64.1221 11.0195 64.1122 10.7509 64.1122 8.48527C64.1122 6.21637 64.1221 5.94769 64.1619 5.05539C64.1984 4.22611 64.3377 3.7783 64.4538 3.47976C64.6064 3.08503 64.7922 2.79976 65.0874 2.50453C65.3859 2.206 65.6679 2.02355 66.0626 1.87097C66.3612 1.75487 66.8123 1.61555 67.6383 1.57906C68.5306 1.53926 68.7992 1.52931 71.0681 1.52931ZM71.0681 0.00012207C68.7628 0.00012207 68.4742 0.0100734 67.5686 0.0498786C66.6663 0.0896838 66.046 0.235636 65.5087 0.444614C64.9481 0.663542 64.4737 0.95213 64.0027 1.42648C63.5284 1.8975 63.2398 2.37185 63.0208 2.92912C62.8119 3.46981 62.6659 4.08679 62.6261 4.98904C62.5863 5.89793 62.5764 6.18652 62.5764 8.4919C62.5764 10.7973 62.5863 11.0859 62.6261 11.9914C62.6659 12.8937 62.8119 13.514 63.0208 14.0514C63.2398 14.612 63.5284 15.0863 64.0027 15.5573C64.4737 16.0284 64.9481 16.3203 65.5054 16.5359C66.046 16.7449 66.663 16.8908 67.5653 16.9306C68.4708 16.9704 68.7594 16.9804 71.0648 16.9804C73.3702 16.9804 73.6588 16.9704 74.5644 16.9306C75.4666 16.8908 76.0869 16.7449 76.6243 16.5359C77.1816 16.3203 77.6559 16.0284 78.1269 15.5573C78.598 15.0863 78.8899 14.612 79.1055 14.0547C79.3145 13.514 79.4604 12.897 79.5002 11.9948C79.54 11.0892 79.55 10.8006 79.55 8.49522C79.55 6.18984 79.54 5.90125 79.5002 4.99568C79.4604 4.09343 79.3145 3.47313 79.1055 2.93576C78.8965 2.37185 78.6079 1.8975 78.1336 1.42648C77.6625 0.955447 77.1882 0.663543 76.6309 0.447931C76.0902 0.238953 75.4732 0.0930009 74.571 0.0531957C73.6621 0.0100734 73.3735 0.00012207 71.0681 0.00012207Z" fill="black"/>
<path d="M71.0681 4.13C68.6599 4.13 66.7061 6.08378 66.7061 8.49199C66.7061 10.9002 68.6599 12.854 71.0681 12.854C73.4764 12.854 75.4301 10.9002 75.4301 8.49199C75.4301 6.08378 73.4764 4.13 71.0681 4.13ZM71.0681 11.3215C69.5058 11.3215 68.2386 10.0543 68.2386 8.49199C68.2386 6.92964 69.5058 5.66251 71.0681 5.66251C72.6305 5.66251 73.8976 6.92964 73.8976 8.49199C73.8976 10.0543 72.6305 11.3215 71.0681 11.3215Z" fill="black"/>
<path d="M76.621 3.95744C76.621 4.52135 76.1632 4.97579 75.6026 4.97579C75.0387 4.97579 74.5843 4.51803 74.5843 3.95744C74.5843 3.39353 75.042 2.93909 75.6026 2.93909C76.1632 2.93909 76.621 3.39685 76.621 3.95744Z" fill="black"/>
</g>
<g clip-path="url(#clip3_1_2628)">
<path d="M43.8934 1.34729H46.2806L41.0652 7.30816L47.2007 15.4196H42.3967L38.6339 10.5L34.3285 15.4196H31.9399L37.5183 9.04374L31.6324 1.34729H36.5585L39.9596 5.84392L43.8934 1.34729ZM43.0555 13.9907H44.3783L35.8397 2.70112H34.4202L43.0555 13.9907Z" fill="black"/>
</g>
<g clip-path="url(#clip4_1_2628)">
<path d="M8.53768 0C3.84784 0 0.0458984 3.80194 0.0458984 8.49178C0.0458984 12.4741 2.78772 15.8158 6.4864 16.7336V11.0869H4.7354V8.49178H6.4864V7.37358C6.4864 4.48332 7.79448 3.14366 10.6321 3.14366C11.1701 3.14366 12.0985 3.2493 12.4782 3.35459V5.70682C12.2778 5.68576 11.9296 5.67523 11.4972 5.67523C10.1049 5.67523 9.56688 6.20274 9.56688 7.57399V8.49178H12.3406L11.8641 11.0869H9.56688V16.9214C13.7717 16.4136 17.0298 12.8335 17.0298 8.49178C17.0295 3.80194 13.2275 0 8.53768 0Z" fill="black"/>
</g>
<defs>
<clipPath id="clip0_1_2628">
<rect width="16.9836" height="16.9836" fill="white" transform="translate(124.335 0.00012207)"/>
</clipPath>
<clipPath id="clip1_1_2628">
<rect width="16.9836" height="16.9836" fill="white" transform="translate(93.4551)"/>
</clipPath>
<clipPath id="clip2_1_2628">
<rect width="16.9836" height="16.9836" fill="white" transform="translate(62.5764 0.00012207)"/>
</clipPath>
<clipPath id="clip3_1_2628">
<rect width="16.9836" height="16.9836" fill="white" transform="translate(30.9248)"/>
</clipPath>
<clipPath id="clip4_1_2628">
<rect width="16.9836" height="16.9836" fill="white" transform="translate(0.0458984)"/>
</clipPath>
</defs>
</svg>
